<?xml version="1.0" encoding="utf-8"?>
<!-- Generator: Adobe Illustrator 16.0.0, SVG Export Plug-In . SVG Version: 6.00 Build 0)  -->
<!DOCTYPE svg PUBLIC "-//W3C//DTD SVG 1.0//EN" "http://www.w3.org/TR/2001/REC-SVG-20010904/DTD/svg10.dtd">
<svg version="1.0" id="Capa_1" xmlns="http://www.w3.org/2000/svg" xmlns:xlink="http://www.w3.org/1999/xlink" x="0px" y="0px"
	 width="375px" height="56px" viewBox="0 0 375 56" enable-background="new 0 0 375 56" xml:space="preserve">
<g>
	<path fill-rule="evenodd" clip-rule="evenodd" d="M12.409,42.888v-1.325c-3.675,0-4.699-1.145-4.699-2.711
		c0-1.145,0.302-2.047,0.783-3.373l2.168-6.204h11.385l2.832,7.168c0.302,0.842,0.662,1.925,0.662,2.891
		c0,1.444-1.083,2.229-2.469,2.229H20.36v1.325h21.685v-1.325c-1.989-0.182-2.471-0.482-3.555-3.133L23.25,0h-4.215L5.24,35.839
		C3.494,40.355,2.469,41.32,0,41.563v1.325H12.409z M21.083,26.864h-9.578l4.82-12.647L21.083,26.864z"/>
	<path fill-rule="evenodd" clip-rule="evenodd" d="M44.323,42.888h1.326c0.602-0.845,1.084-1.445,2.047-1.445
		c2.651,0,4.156,2.166,9.035,2.166c5.542,0,10.24-4.275,10.24-9.274c0-9.638-14.457-12.167-14.457-16.504
		c0-1.928,1.084-2.892,3.012-2.892c3.733,0,6.324,3.614,7.83,7.229h1.325V12.77h-1.325c-0.242,0.663-0.603,1.325-1.987,1.325
		c-1.566,0-3.916-1.325-7.65-1.325c-6.023,0-9.878,3.132-9.878,8.794c0,7.59,13.975,10.723,13.975,15.961
		c0,1.567-1.084,3.194-3.494,3.194c-4.818,0-7.951-4.458-8.673-8.675h-1.326V42.888z"/>
	<path fill-rule="evenodd" clip-rule="evenodd" d="M96.711,33.249c-1.446,2.712-4.458,4.818-6.866,4.818
		c-5.421,0-8.313-5.18-8.313-13.371c0-7.709,1.927-9.758,3.854-9.758c1.084,0,2.17,1.145,2.17,2.952
		c0,1.325-0.241,2.348-0.241,3.674c0,2.108,1.626,4.457,4.637,4.457c3.133,0,4.879-2.047,4.879-5.179
		c0-3.494-3.193-8.072-11.325-8.072c-9.636,0-14.937,7.83-14.937,15.42c0,8.794,6.144,15.418,14.095,15.418
		c6.987,0,11.444-3.912,13.733-9.635L96.711,33.249z"/>
	<path fill-rule="evenodd" clip-rule="evenodd" d="M116.279,36.322c-0.482,0.54-1.144,1.265-2.469,1.265
		c-2.169,0-2.832-1.325-2.832-3.733c0-4.459,3.071-5.423,5.301-6.567V36.322z M126.88,22.95c0-6.445-2.289-10.18-12.769-10.18
		c-7.47,0-12.891,2.892-12.891,7.59c0,3.373,2.047,5.06,4.938,5.06c2.652,0,4.94-1.267,4.94-3.495c0-1.986-1.206-3.251-1.206-4.696
		c0-1.326,1.206-2.291,2.893-2.291c2.71,0,3.493,1.747,3.493,4.518v5.362c-4.518,1.505-15.901,5.059-15.901,11.867
		c0,4.155,2.649,6.924,6.746,6.924c3.613,0,6.925-1.865,9.636-4.214c1.024,1.564,2.47,4.214,6.325,4.214
		c3.375,0,7.53-2.589,7.53-4.454c0-0.303-0.241-0.725-0.663-0.725c-0.903,0-1.024,0.604-1.747,0.604
		c-0.843,0-1.325-0.423-1.325-2.771V22.95z"/>
	<path fill-rule="evenodd" clip-rule="evenodd" d="M134.5,42.888h1.325c0.602-0.845,1.084-1.445,2.048-1.445
		c2.65,0,4.156,2.166,9.036,2.166c5.54,0,10.239-4.275,10.239-9.274c0-9.638-14.456-12.167-14.456-16.504
		c0-1.928,1.085-2.892,3.011-2.892c3.734,0,6.325,3.614,7.832,7.229h1.324V12.77h-1.324c-0.242,0.663-0.604,1.325-1.988,1.325
		c-1.566,0-3.915-1.325-7.65-1.325c-6.022,0-9.877,3.132-9.877,8.794c0,7.59,13.974,10.723,13.974,15.961
		c0,1.567-1.083,3.194-3.495,3.194c-4.818,0-7.951-4.458-8.673-8.675H134.5V42.888z"/>
	<path fill-rule="evenodd" clip-rule="evenodd" d="M191.408,28.19c0-7.71-5.542-15.42-15.3-15.42c-9.758,0-15.3,7.71-15.3,15.42
		c0,7.709,5.542,15.418,15.3,15.418C185.867,43.608,191.408,35.899,191.408,28.19z M180.083,28.19
		c0,11.084-1.446,13.252-3.976,13.252c-2.529,0-3.976-2.168-3.976-13.252c0-11.083,1.447-13.252,3.976-13.252
		C178.638,14.938,180.083,17.107,180.083,28.19z"/>
	<path fill-rule="evenodd" clip-rule="evenodd" d="M231.012,2.093l1.027,12.589h-1.027c-1.041-3.137-2.383-5.5-4.029-7.088
		c-2.375-2.295-5.422-3.441-9.146-3.441c-5.078,0-8.939,2.01-11.588,6.029c-2.217,3.393-3.324,7.433-3.324,12.118
		c0,3.803,0.734,7.275,2.205,10.411c1.473,3.138,3.393,5.439,5.768,6.911c2.391,1.451,4.842,2.178,7.352,2.178
		c1.469,0,2.891-0.186,4.264-0.561c1.373-0.371,2.695-0.921,3.971-1.646v-11.53c0-2-0.156-3.303-0.469-3.911
		c-0.297-0.627-0.768-1.097-1.414-1.412c-0.629-0.333-1.746-0.5-3.354-0.5v-1.117h15.441v1.117h-0.734
		c-1.531,0-2.582,0.511-3.148,1.53c-0.391,0.726-0.588,2.156-0.588,4.293V40.27c-2.254,1.217-4.479,2.108-6.674,2.678
		c-2.199,0.566-4.639,0.851-7.322,0.851c-7.707,0-13.563-2.47-17.561-7.411c-3.002-3.705-4.502-7.979-4.502-12.823
		c0-3.509,0.844-6.872,2.529-10.087c2.002-3.824,4.744-6.766,8.236-8.824c2.92-1.706,6.373-2.559,10.354-2.559
		c1.449,0,2.764,0.119,3.941,0.354c1.193,0.236,2.881,0.755,5.057,1.559c1.1,0.411,1.834,0.618,2.205,0.618
		c0.375,0,0.688-0.167,0.943-0.5c0.273-0.353,0.439-1.03,0.5-2.03H231.012z"/>
	<path fill-rule="evenodd" clip-rule="evenodd" d="M254.688,39.007c-2.764,2.135-4.5,3.371-5.205,3.703
		c-1.059,0.49-2.186,0.735-3.383,0.737c-1.863,0-3.4-0.638-4.617-1.913c-1.197-1.273-1.795-2.95-1.795-5.029
		c0-1.313,0.297-2.451,0.883-3.411c0.803-1.333,2.195-2.589,4.178-3.764c1.998-1.178,5.313-2.609,9.939-4.295v-1.06
		c0-2.685-0.432-4.527-1.291-5.529c-0.848-1-2.082-1.5-3.709-1.5c-1.234,0-2.217,0.333-2.941,1
		c-0.746,0.667-1.117,1.432-1.117,2.293l0.059,1.706c0,0.903-0.236,1.599-0.705,2.088c-0.453,0.492-1.051,0.736-1.797,0.736
		c-0.725,0-1.32-0.255-1.793-0.766c-0.451-0.509-0.676-1.204-0.676-2.089c0-1.685,0.861-3.233,2.59-4.646
		c1.723-1.412,4.145-2.117,7.264-2.117c2.393,0,4.352,0.402,5.885,1.205c1.154,0.608,2.008,1.559,2.555,2.854
		c0.355,0.843,0.529,2.568,0.529,5.176v9.147c0,2.569,0.051,4.148,0.148,4.735c0.098,0.569,0.254,0.953,0.471,1.147
		c0.236,0.196,0.5,0.295,0.793,0.295c0.314,0,0.59-0.068,0.824-0.208c0.412-0.253,1.205-0.97,2.381-2.146v1.648
		c-2.195,2.941-4.291,4.41-6.293,4.41c-0.961,0-1.725-0.333-2.295-1C255,41.749,254.707,40.612,254.688,39.007z M254.688,37.093
		V26.829c-2.961,1.176-4.873,2.01-5.734,2.501c-1.551,0.861-2.658,1.763-3.324,2.704s-1,1.969-1,3.088
		c0,1.412,0.422,2.587,1.266,3.53c0.842,0.922,1.813,1.383,2.912,1.383C250.295,40.035,252.258,39.056,254.688,37.093z"/>
	<path fill-rule="evenodd" clip-rule="evenodd" d="M275.424,1.064v35.735c0,1.686,0.115,2.806,0.354,3.355
		c0.252,0.546,0.635,0.968,1.146,1.264c0.51,0.274,1.457,0.41,2.852,0.41v1.06H266.57v-1.06c1.236,0,2.078-0.127,2.527-0.383
		c0.451-0.255,0.805-0.676,1.061-1.263c0.256-0.589,0.383-1.716,0.385-3.384v-24.47c0-3.038-0.07-4.901-0.209-5.588
		c-0.135-0.706-0.361-1.186-0.676-1.441c-0.295-0.254-0.678-0.381-1.148-0.381c-0.508,0-1.156,0.156-1.939,0.471l-0.5-1.03
		l8.027-3.294H275.424z"/>
	<path fill-rule="evenodd" clip-rule="evenodd" d="M292.158,1.064v35.735c0,1.686,0.117,2.806,0.352,3.355
		c0.256,0.546,0.639,0.968,1.148,1.264c0.508,0.274,1.461,0.41,2.852,0.41v1.06h-13.203v-1.06c1.234,0,2.076-0.127,2.527-0.383
		c0.451-0.255,0.803-0.676,1.059-1.263c0.254-0.589,0.383-1.716,0.383-3.384v-24.47c0-3.038-0.068-4.901-0.207-5.588
		c-0.137-0.706-0.363-1.186-0.674-1.441c-0.297-0.254-0.678-0.381-1.148-0.381c-0.51,0-1.158,0.156-1.939,0.471l-0.502-1.03
		l8.029-3.294H292.158z"/>
	<path fill-rule="evenodd" clip-rule="evenodd" d="M303.557,26.094c-0.021,3.998,0.949,7.138,2.91,9.41
		c1.961,2.275,4.266,3.412,6.912,3.412c1.766,0,3.295-0.479,4.588-1.438c1.314-0.982,2.41-2.649,3.295-5.004l0.912,0.592
		c-0.412,2.684-1.609,5.136-3.588,7.352c-1.982,2.198-4.463,3.293-7.443,3.293c-3.234,0-6.008-1.254-8.322-3.764
		c-2.293-2.532-3.441-5.923-3.441-10.176c0-4.607,1.176-8.197,3.529-10.765c2.373-2.589,5.342-3.884,8.91-3.884
		c3.02,0,5.5,1.001,7.443,3.001c1.941,1.98,2.912,4.638,2.912,7.971H303.557z M303.557,24.387h12.469
		c-0.1-1.725-0.303-2.94-0.617-3.646c-0.49-1.098-1.225-1.96-2.205-2.588c-0.961-0.626-1.973-0.94-3.029-0.941
		c-1.627,0-3.092,0.637-4.383,1.912C304.516,20.378,303.771,22.133,303.557,24.387z"/>
	<path fill-rule="evenodd" clip-rule="evenodd" d="M333.041,15.153v6.058c2.254-4.039,4.566-6.057,6.941-6.058
		c1.08,0,1.969,0.333,2.678,1c0.705,0.647,1.059,1.403,1.059,2.265c0,0.764-0.258,1.413-0.766,1.941
		c-0.508,0.529-1.117,0.793-1.824,0.793c-0.686,0-1.461-0.333-2.324-0.999c-0.844-0.688-1.469-1.03-1.881-1.03
		c-0.352,0-0.736,0.197-1.146,0.587c-0.883,0.805-1.797,2.128-2.736,3.97v12.912c0,1.489,0.186,2.619,0.557,3.384
		c0.256,0.527,0.707,0.97,1.355,1.321c0.648,0.354,1.578,0.53,2.795,0.53v1.06h-13.793v-1.06c1.369,0,2.391-0.214,3.057-0.647
		c0.49-0.313,0.832-0.813,1.029-1.499c0.098-0.333,0.146-1.283,0.146-2.854v-10.44c0-3.137-0.068-4.999-0.205-5.589
		c-0.117-0.607-0.354-1.047-0.707-1.323c-0.332-0.274-0.754-0.412-1.262-0.413c-0.609,0-1.297,0.148-2.059,0.442l-0.297-1.059
		l8.146-3.293H333.041z"/>
	<path fill-rule="evenodd" clip-rule="evenodd" d="M345.494,15.946h12.559v1.089h-0.617c-0.881,0-1.549,0.196-1.998,0.589
		c-0.436,0.372-0.648,0.842-0.648,1.411c0,0.764,0.322,1.824,0.971,3.177l6.557,13.588l6.033-14.883
		c0.33-0.803,0.496-1.597,0.498-2.382c0-0.353-0.066-0.618-0.207-0.794c-0.156-0.215-0.4-0.382-0.734-0.5
		c-0.332-0.138-0.922-0.206-1.764-0.206v-1.089h8.764v1.089c-0.727,0.079-1.283,0.235-1.678,0.471
		c-0.393,0.235-0.822,0.676-1.291,1.323c-0.178,0.275-0.51,1.031-1.002,2.266l-10.969,26.881c-1.061,2.608-2.453,4.578-4.178,5.912
		c-1.705,1.333-3.354,1.998-4.939,2c-1.158,0-2.109-0.334-2.854-1c-0.746-0.667-1.117-1.431-1.117-2.293
		c0-0.824,0.264-1.492,0.791-2.002c0.551-0.488,1.293-0.733,2.236-0.733c0.648,0,1.531,0.215,2.648,0.646
		c0.783,0.293,1.273,0.441,1.471,0.441c0.588,0,1.223-0.305,1.91-0.915c0.707-0.606,1.412-1.782,2.117-3.526l1.914-4.677
		l-9.678-20.323c-0.295-0.607-0.764-1.363-1.412-2.264c-0.49-0.687-0.893-1.146-1.207-1.383c-0.447-0.313-1.174-0.587-2.176-0.823
		V15.946z"/>
</g>
</svg>
